<?xml version="1.0" encoding="UTF-8" standalone="no"?><svg xmlns="http://www.w3.org/2000/svg" xmlns:xlink="http://www.w3.org/1999/xlink" contentScriptType="application/ecmascript" contentStyleType="text/css" height="600px" preserveAspectRatio="none" style="width:2049px;height:600px;" version="1.1" viewBox="0 0 2049 600" width="2049px" zoomAndPan="magnify"><defs><filter height="300%" id="f1qyqz29ytrhhw" width="300%" x="-1" y="-1"><feGaussianBlur result="blurOut" stdDeviation="2.0"/><feColorMatrix in="blurOut" result="blurOut2" type="matrix" values="0 0 0 0 0 0 0 0 0 0 0 0 0 0 0 0 0 0 .4 0"/><feOffset dx="4.0" dy="4.0" in="blurOut2" result="blurOut3"/><feBlend in="SourceGraphic" in2="blurOut3" mode="normal"/></filter></defs><g><!--MD5=[3fee75583bb7a64f68d843a3c9534ab3]
class Node--><rect codeLine="1" fill="#FEFECE" filter="url(#f1qyqz29ytrhhw)" height="150.4375" id="Node" style="stroke:#A80036;stroke-width:1.5;" width="168" x="7" y="10"/><ellipse cx="22" cy="26" fill="#ADD1B2" rx="11" ry="11" style="stroke:#A80036;stroke-width:1.0;"/><path d="M24.9688,31.6406 Q24.3906,31.9375 23.75,32.0781 Q23.1094,32.2344 22.4063,32.2344 Q19.9063,32.2344 18.5781,30.5938 Q17.2656,28.9375 17.2656,25.8125 Q17.2656,22.6875 18.5781,21.0313 Q19.9063,19.375 22.4063,19.375 Q23.1094,19.375 23.75,19.5313 Q24.4063,19.6875 24.9688,19.9844 L24.9688,22.7031 Q24.3438,22.125 23.75,21.8594 Q23.1563,21.5781 22.5313,21.5781 Q21.1875,21.5781 20.5,22.6563 Q19.8125,23.7188 19.8125,25.8125 Q19.8125,27.9063 20.5,28.9844 Q21.1875,30.0469 22.5313,30.0469 Q23.1563,30.0469 23.75,29.7813 Q24.3438,29.5 24.9688,28.9219 L24.9688,31.6406 Z " fill="#000000"/><text fill="#000000" font-family="sans-serif" font-size="12" lengthAdjust="spacingAndGlyphs" textLength="33" x="36" y="30.1543">Node</text><rect fill="#FFFFFF" height="15.9688" style="stroke:#000000;stroke-width:1.0;stroke-dasharray:2.0,2.0;" width="101" x="77" y="7"/><text fill="#000000" font-family="sans-serif" font-size="12" font-style="italic" lengthAdjust="spacingAndGlyphs" textLength="99" x="78" y="19.1387">T extends State</text><line style="stroke:#A80036;stroke-width:1.5;" x1="8" x2="174" y1="42" y2="42"/><rect fill="none" height="6" style="stroke:#C82930;stroke-width:1.0;" width="6" x="15" y="50"/><text fill="#000000" font-family="sans-serif" font-size="11" lengthAdjust="spacingAndGlyphs" textLength="62" x="27" y="56.2104">T myState;</text><rect fill="none" height="6" style="stroke:#C82930;stroke-width:1.0;" width="6" x="15" y="62.8047"/><text fill="#000000" font-family="sans-serif" font-size="11" lengthAdjust="spacingAndGlyphs" textLength="69" x="27" y="69.0151">T nextState;</text><rect fill="none" height="6" style="stroke:#C82930;stroke-width:1.0;" width="6" x="15" y="75.6094"/><text fill="#000000" font-family="sans-serif" font-size="11" lengthAdjust="spacingAndGlyphs" textLength="79" x="27" y="81.8198">StateRule&lt;T&gt;</text><line style="stroke:#A80036;stroke-width:1.5;" x1="8" x2="174" y1="88.4141" y2="88.4141"/><ellipse cx="18" cy="99.4141" fill="#84BE84" rx="3" ry="3" style="stroke:#038048;stroke-width:1.0;"/><text fill="#000000" font-family="sans-serif" font-size="11" lengthAdjust="spacingAndGlyphs" textLength="124" x="27" y="102.6245">addNeighbor(Node n);</text><ellipse cx="18" cy="112.2188" fill="#84BE84" rx="3" ry="3" style="stroke:#038048;stroke-width:1.0;"/><text fill="#000000" font-family="sans-serif" font-size="11" lengthAdjust="spacingAndGlyphs" textLength="75" x="27" y="115.4292">getState(): T;</text><ellipse cx="18" cy="125.0234" fill="#84BE84" rx="3" ry="3" style="stroke:#038048;stroke-width:1.0;"/><text fill="#000000" font-family="sans-serif" font-size="11" lengthAdjust="spacingAndGlyphs" textLength="125" x="27" y="128.2339">determineNextState();</text><ellipse cx="18" cy="137.8281" fill="#84BE84" rx="3" ry="3" style="stroke:#038048;stroke-width:1.0;"/><text fill="#000000" font-family="sans-serif" font-size="11" lengthAdjust="spacingAndGlyphs" textLength="89" x="27" y="141.0386">advanceState();</text><ellipse cx="18" cy="150.6328" fill="#84BE84" rx="3" ry="3" style="stroke:#038048;stroke-width:1.0;"/><text fill="#000000" font-family="sans-serif" font-size="11" lengthAdjust="spacingAndGlyphs" textLength="129" x="27" y="153.8433">get&lt;AspectOfState&gt;();</text><!--MD5=[0b9c5ab2977d826e61745ad06fdeae82]
class NodeManager--><rect codeLine="19" fill="#FEFECE" filter="url(#f1qyqz29ytrhhw)" height="99.2188" id="NodeManager" style="stroke:#A80036;stroke-width:1.5;" width="223" x="199.5" y="226.5"/><ellipse cx="214.5" cy="242.5" fill="#A9DCDF" rx="11" ry="11" style="stroke:#A80036;stroke-width:1.0;"/><path d="M214.6094,237.8438 L213.4531,242.9219 L215.7813,242.9219 L214.6094,237.8438 Z M213.125,235.6094 L216.1094,235.6094 L219.4688,248 L217.0156,248 L216.25,244.9375 L212.9688,244.9375 L212.2188,248 L209.7813,248 L213.125,235.6094 Z " fill="#000000"/><text fill="#000000" font-family="sans-serif" font-size="12" font-style="italic" lengthAdjust="spacingAndGlyphs" textLength="88" x="228.5" y="246.6543">NodeManager</text><rect fill="#FFFFFF" height="15.9688" style="stroke:#000000;stroke-width:1.0;stroke-dasharray:2.0,2.0;" width="101" x="324.5" y="223.5"/><text fill="#000000" font-family="sans-serif" font-size="12" font-style="italic" lengthAdjust="spacingAndGlyphs" textLength="99" x="325.5" y="235.6387">T extends State</text><line style="stroke:#A80036;stroke-width:1.5;" x1="200.5" x2="421.5" y1="258.5" y2="258.5"/><rect fill="none" height="6" style="stroke:#C82930;stroke-width:1.0;" width="6" x="207.5" y="266.5"/><text fill="#000000" font-family="sans-serif" font-size="11" lengthAdjust="spacingAndGlyphs" textLength="165" x="219.5" y="272.7104">ArrayList&lt;Node&lt;T&gt;&gt; nodes;</text><rect fill="none" height="6" style="stroke:#C82930;stroke-width:1.0;" width="6" x="207.5" y="279.3047"/><text fill="#000000" font-family="sans-serif" font-size="11" lengthAdjust="spacingAndGlyphs" textLength="123" x="219.5" y="285.5151">StateRules&lt;T&gt; rules;</text><line style="stroke:#A80036;stroke-width:1.5;" x1="200.5" x2="421.5" y1="292.1094" y2="292.1094"/><ellipse cx="210.5" cy="303.1094" fill="#84BE84" rx="3" ry="3" style="stroke:#038048;stroke-width:1.0;"/><text fill="#000000" font-family="sans-serif" font-size="11" lengthAdjust="spacingAndGlyphs" textLength="148" x="219.5" y="306.3198">addNode(Node&lt;T&gt; node);</text><ellipse cx="210.5" cy="315.9141" fill="#84BE84" rx="3" ry="3" style="stroke:#038048;stroke-width:1.0;"/><text fill="#000000" font-family="sans-serif" font-size="11" lengthAdjust="spacingAndGlyphs" textLength="87" x="219.5" y="319.1245">updateNodes();</text><path d="M210.5,49.5 L210.5,120.0313 A0,0 0 0 0 210.5,120.0313 L307,120.0313 L311,226.32 L315,120.0313 L411.5,120.0313 A0,0 0 0 0 411.5,120.0313 L411.5,59.5 L401.5,49.5 L210.5,49.5 A0,0 0 0 0 210.5,49.5 " fill="#FBFB77" filter="url(#f1qyqz29ytrhhw)" style="stroke:#A80036;stroke-width:1.0;"/><path d="M401.5,49.5 L401.5,59.5 L411.5,59.5 L401.5,49.5 " fill="#FBFB77" style="stroke:#A80036;stroke-width:1.0;"/><text fill="#000000" font-family="sans-serif" font-size="13" lengthAdjust="spacingAndGlyphs" textLength="180" x="216.5" y="66.5669">arranges nodes and assigns</text><text fill="#000000" font-family="sans-serif" font-size="13" lengthAdjust="spacingAndGlyphs" textLength="169" x="216.5" y="81.6997">neighbors based on shape</text><text fill="#000000" font-family="sans-serif" font-size="13" lengthAdjust="spacingAndGlyphs" textLength="162" x="216.5" y="96.8325">and node amounts. Does</text><text fill="#000000" font-family="sans-serif" font-size="13" lengthAdjust="spacingAndGlyphs" textLength="152" x="216.5" y="111.9653">EVERYTHING with nodes</text><!--MD5=[2446113d27393e64c42682ed5a7fa59f]
class SimulationSystem--><rect codeLine="34" fill="#FEFECE" filter="url(#f1qyqz29ytrhhw)" height="112.0234" id="SimulationSystem" style="stroke:#A80036;stroke-width:1.5;" width="342" x="458" y="220"/><ellipse cx="569.75" cy="236" fill="#ADD1B2" rx="11" ry="11" style="stroke:#A80036;stroke-width:1.0;"/><path d="M572.7188,241.6406 Q572.1406,241.9375 571.5,242.0781 Q570.8594,242.2344 570.1563,242.2344 Q567.6563,242.2344 566.3281,240.5938 Q565.0156,238.9375 565.0156,235.8125 Q565.0156,232.6875 566.3281,231.0313 Q567.6563,229.375 570.1563,229.375 Q570.8594,229.375 571.5,229.5313 Q572.1563,229.6875 572.7188,229.9844 L572.7188,232.7031 Q572.0938,232.125 571.5,231.8594 Q570.9063,231.5781 570.2813,231.5781 Q568.9375,231.5781 568.25,232.6563 Q567.5625,233.7188 567.5625,235.8125 Q567.5625,237.9063 568.25,238.9844 Q568.9375,240.0469 570.2813,240.0469 Q570.9063,240.0469 571.5,239.7813 Q572.0938,239.5 572.7188,238.9219 L572.7188,241.6406 Z " fill="#000000"/><text fill="#000000" font-family="sans-serif" font-size="12" lengthAdjust="spacingAndGlyphs" textLength="110" x="590.25" y="240.1543">SimulationSystem</text><line style="stroke:#A80036;stroke-width:1.5;" x1="459" x2="799" y1="252" y2="252"/><rect fill="none" height="6" style="stroke:#C82930;stroke-width:1.0;" width="6" x="466" y="260"/><text fill="#000000" font-family="sans-serif" font-size="11" lengthAdjust="spacingAndGlyphs" textLength="133" x="478" y="266.2104">NodeManager manager</text><rect fill="none" height="6" style="stroke:#C82930;stroke-width:1.0;" width="6" x="466" y="272.8047"/><text fill="#000000" font-family="sans-serif" font-size="11" lengthAdjust="spacingAndGlyphs" textLength="123" x="478" y="279.0151">StateRules&lt;T&gt; rules;</text><line style="stroke:#A80036;stroke-width:1.5;" x1="459" x2="799" y1="285.6094" y2="285.6094"/><ellipse cx="469" cy="296.6094" fill="#84BE84" rx="3" ry="3" style="stroke:#038048;stroke-width:1.0;"/><text fill="#000000" font-family="sans-serif" font-size="11" lengthAdjust="spacingAndGlyphs" textLength="302" x="478" y="299.8198">setConfiguration(String name, double value) : double</text><ellipse cx="469" cy="309.4141" fill="#84BE84" rx="3" ry="3" style="stroke:#038048;stroke-width:1.0;"/><text fill="#000000" font-family="sans-serif" font-size="11" lengthAdjust="spacingAndGlyphs" textLength="316" x="478" y="312.6245">getConfigurations() : List&lt;MapEntries&lt;String, String&gt;&gt;</text><ellipse cx="469" cy="322.2188" fill="#84BE84" rx="3" ry="3" style="stroke:#038048;stroke-width:1.0;"/><text fill="#000000" font-family="sans-serif" font-size="11" lengthAdjust="spacingAndGlyphs" textLength="38" x="478" y="325.4292">reset()</text><path d="M539.5,42 L539.5,127.6641 A0,0 0 0 0 539.5,127.6641 L625,127.6641 L629,219.8 L633,127.6641 L718.5,127.6641 A0,0 0 0 0 718.5,127.6641 L718.5,52 L708.5,42 L539.5,42 A0,0 0 0 0 539.5,42 " fill="#FBFB77" filter="url(#f1qyqz29ytrhhw)" style="stroke:#A80036;stroke-width:1.0;"/><path d="M708.5,42 L708.5,52 L718.5,52 L708.5,42 " fill="#FBFB77" style="stroke:#A80036;stroke-width:1.0;"/><text fill="#000000" font-family="sans-serif" font-size="13" lengthAdjust="spacingAndGlyphs" textLength="123" x="545.5" y="59.0669">getConfigurations()</text><text fill="#000000" font-family="sans-serif" font-size="13" lengthAdjust="spacingAndGlyphs" textLength="107" x="545.5" y="74.1997">returns a map of</text><text fill="#000000" font-family="sans-serif" font-size="13" lengthAdjust="spacingAndGlyphs" textLength="116" x="545.5" y="89.3325">the value and how</text><text fill="#000000" font-family="sans-serif" font-size="13" lengthAdjust="spacingAndGlyphs" textLength="91" x="545.5" y="104.4653">to represent it</text><text fill="#000000" font-family="sans-serif" font-size="13" lengthAdjust="spacingAndGlyphs" textLength="158" x="545.5" y="119.5981">(i.e. a slider or whatever)</text><!--MD5=[824c8458a7dfa1d39ad509c436c687e3]
class RectangularManager--><rect codeLine="45" fill="#FEFECE" filter="url(#f1qyqz29ytrhhw)" height="48" id="RectangularManager" style="stroke:#A80036;stroke-width:1.5;" width="266" x="178" y="417.5"/><ellipse cx="193" cy="433.5" fill="#ADD1B2" rx="11" ry="11" style="stroke:#A80036;stroke-width:1.0;"/><path d="M195.9688,439.1406 Q195.3906,439.4375 194.75,439.5781 Q194.1094,439.7344 193.4063,439.7344 Q190.9063,439.7344 189.5781,438.0938 Q188.2656,436.4375 188.2656,433.3125 Q188.2656,430.1875 189.5781,428.5313 Q190.9063,426.875 193.4063,426.875 Q194.1094,426.875 194.75,427.0313 Q195.4063,427.1875 195.9688,427.4844 L195.9688,430.2031 Q195.3438,429.625 194.75,429.3594 Q194.1563,429.0781 193.5313,429.0781 Q192.1875,429.0781 191.5,430.1563 Q190.8125,431.2188 190.8125,433.3125 Q190.8125,435.4063 191.5,436.4844 Q192.1875,437.5469 193.5313,437.5469 Q194.1563,437.5469 194.75,437.2813 Q195.3438,437 195.9688,436.4219 L195.9688,439.1406 Z " fill="#000000"/><text fill="#000000" font-family="sans-serif" font-size="12" lengthAdjust="spacingAndGlyphs" textLength="131" x="207" y="437.6543">RectangularManager</text><rect fill="#FFFFFF" height="15.9688" style="stroke:#000000;stroke-width:1.0;stroke-dasharray:2.0,2.0;" width="101" x="346" y="414.5"/><text fill="#000000" font-family="sans-serif" font-size="12" font-style="italic" lengthAdjust="spacingAndGlyphs" textLength="99" x="347" y="426.6387">T extends State</text><line style="stroke:#A80036;stroke-width:1.5;" x1="179" x2="443" y1="449.5" y2="449.5"/><line style="stroke:#A80036;stroke-width:1.5;" x1="179" x2="443" y1="457.5" y2="457.5"/><path d="M175,551 L175,591.2656 A0,0 0 0 0 175,591.2656 L447,591.2656 A0,0 0 0 0 447,591.2656 L447,561 L437,551 L315,551 L311,465.59 L307,551 L175,551 A0,0 0 0 0 175,551 " fill="#FBFB77" filter="url(#f1qyqz29ytrhhw)" style="stroke:#A80036;stroke-width:1.0;"/><path d="M437,551 L437,561 L447,561 L437,551 " fill="#FBFB77" style="stroke:#A80036;stroke-width:1.0;"/><text fill="#000000" font-family="sans-serif" font-size="13" lengthAdjust="spacingAndGlyphs" textLength="247" x="181" y="568.0669">When nodes are added their neighbors</text><text fill="#000000" font-family="sans-serif" font-size="13" lengthAdjust="spacingAndGlyphs" textLength="251" x="181" y="583.1997">are configured in a rectangular pattern.</text><!--MD5=[b783ec3f66a5a9bd8ac24c18cc113061]
class SimulationManager--><rect codeLine="54" fill="#FEFECE" filter="url(#f1qyqz29ytrhhw)" height="112.0234" id="SimulationManager" style="stroke:#A80036;stroke-width:1.5;" width="284" x="835" y="220"/><ellipse cx="912.75" cy="236" fill="#ADD1B2" rx="11" ry="11" style="stroke:#A80036;stroke-width:1.0;"/><path d="M915.7188,241.6406 Q915.1406,241.9375 914.5,242.0781 Q913.8594,242.2344 913.1563,242.2344 Q910.6563,242.2344 909.3281,240.5938 Q908.0156,238.9375 908.0156,235.8125 Q908.0156,232.6875 909.3281,231.0313 Q910.6563,229.375 913.1563,229.375 Q913.8594,229.375 914.5,229.5313 Q915.1563,229.6875 915.7188,229.9844 L915.7188,232.7031 Q915.0938,232.125 914.5,231.8594 Q913.9063,231.5781 913.2813,231.5781 Q911.9375,231.5781 911.25,232.6563 Q910.5625,233.7188 910.5625,235.8125 Q910.5625,237.9063 911.25,238.9844 Q911.9375,240.0469 913.2813,240.0469 Q913.9063,240.0469 914.5,239.7813 Q915.0938,239.5 915.7188,238.9219 L915.7188,241.6406 Z " fill="#000000"/><text fill="#000000" font-family="sans-serif" font-size="12" lengthAdjust="spacingAndGlyphs" textLength="120" x="933.25" y="240.1543">SimulationManager</text><line style="stroke:#A80036;stroke-width:1.5;" x1="836" x2="1118" y1="252" y2="252"/><line style="stroke:#A80036;stroke-width:1.5;" x1="836" x2="1118" y1="260" y2="260"/><ellipse cx="846" cy="271" fill="#84BE84" rx="3" ry="3" style="stroke:#038048;stroke-width:1.0;"/><text fill="#000000" font-family="sans-serif" font-size="11" lengthAdjust="spacingAndGlyphs" textLength="98" x="855" y="274.2104">resetSimulation()</text><ellipse cx="846" cy="283.8047" fill="#84BE84" rx="3" ry="3" style="stroke:#038048;stroke-width:1.0;"/><text fill="#000000" font-family="sans-serif" font-size="11" lengthAdjust="spacingAndGlyphs" textLength="113" x="855" y="287.0151">getConfigurations();</text><ellipse cx="846" cy="296.6094" fill="#84BE84" rx="3" ry="3" style="stroke:#038048;stroke-width:1.0;"/><text fill="#000000" font-family="sans-serif" font-size="11" lengthAdjust="spacingAndGlyphs" textLength="258" x="855" y="299.8198">setConfiguration(String config, double value);</text><ellipse cx="846" cy="309.4141" fill="#84BE84" rx="3" ry="3" style="stroke:#038048;stroke-width:1.0;"/><text fill="#000000" font-family="sans-serif" font-size="11" lengthAdjust="spacingAndGlyphs" textLength="165" x="855" y="312.6245">setSystem(SYSTEM system);</text><ellipse cx="846" cy="322.2188" fill="#84BE84" rx="3" ry="3" style="stroke:#038048;stroke-width:1.0;"/><text fill="#000000" font-family="sans-serif" font-size="11" lengthAdjust="spacingAndGlyphs" textLength="112" x="855" y="325.4292">availableSystems();</text><path d="M856,65 L856,105.2656 A0,0 0 0 0 856,105.2656 L973,105.2656 L977,219.81 L981,105.2656 L1098,105.2656 A0,0 0 0 0 1098,105.2656 L1098,75 L1088,65 L856,65 A0,0 0 0 0 856,65 " fill="#FBFB77" filter="url(#f1qyqz29ytrhhw)" style="stroke:#A80036;stroke-width:1.0;"/><path d="M1088,65 L1088,75 L1098,75 L1088,65 " fill="#FBFB77" style="stroke:#A80036;stroke-width:1.0;"/><text fill="#000000" font-family="sans-serif" font-size="13" lengthAdjust="spacingAndGlyphs" textLength="221" x="862" y="82.0669">Set the simulation and the system</text><text fill="#000000" font-family="sans-serif" font-size="13" lengthAdjust="spacingAndGlyphs" textLength="101" x="862" y="97.1997">the goes with it.</text><!--MD5=[c77d2235cb15d741c461b9ce09d7d315]
class FireSystem--><rect codeLine="62" fill="#FEFECE" filter="url(#f1qyqz29ytrhhw)" height="73.6094" id="FireSystem" style="stroke:#A80036;stroke-width:1.5;" width="259" x="499.5" y="404.5"/><ellipse cx="590.75" cy="420.5" fill="#ADD1B2" rx="11" ry="11" style="stroke:#A80036;stroke-width:1.0;"/><path d="M593.7188,426.1406 Q593.1406,426.4375 592.5,426.5781 Q591.8594,426.7344 591.1563,426.7344 Q588.6563,426.7344 587.3281,425.0938 Q586.0156,423.4375 586.0156,420.3125 Q586.0156,417.1875 587.3281,415.5313 Q588.6563,413.875 591.1563,413.875 Q591.8594,413.875 592.5,414.0313 Q593.1563,414.1875 593.7188,414.4844 L593.7188,417.2031 Q593.0938,416.625 592.5,416.3594 Q591.9063,416.0781 591.2813,416.0781 Q589.9375,416.0781 589.25,417.1563 Q588.5625,418.2188 588.5625,420.3125 Q588.5625,422.4063 589.25,423.4844 Q589.9375,424.5469 591.2813,424.5469 Q591.9063,424.5469 592.5,424.2813 Q593.0938,424 593.7188,423.4219 L593.7188,426.1406 Z " fill="#000000"/><text fill="#000000" font-family="sans-serif" font-size="12" lengthAdjust="spacingAndGlyphs" textLength="68" x="611.25" y="424.6543">FireSystem</text><line style="stroke:#A80036;stroke-width:1.5;" x1="500.5" x2="757.5" y1="436.5" y2="436.5"/><rect fill="none" height="6" style="stroke:#C82930;stroke-width:1.0;" width="6" x="507.5" y="444.5"/><text fill="#000000" font-family="sans-serif" font-size="11" lengthAdjust="spacingAndGlyphs" textLength="72" x="519.5" y="450.7104">int flamibility</text><line style="stroke:#A80036;stroke-width:1.5;" x1="500.5" x2="757.5" y1="457.3047" y2="457.3047"/><ellipse cx="510.5" cy="468.3047" fill="#84BE84" rx="3" ry="3" style="stroke:#038048;stroke-width:1.0;"/><text fill="#000000" font-family="sans-serif" font-size="11" lengthAdjust="spacingAndGlyphs" textLength="233" x="519.5" y="471.5151">get&lt;Configuration&gt;(String name) : Value</text><!--MD5=[60d6b92408f98aed8df94d5c6e04aa63]
class State--><rect codeLine="67" fill="#FEFECE" filter="url(#f1qyqz29ytrhhw)" height="48" id="State" style="stroke:#A80036;stroke-width:1.5;" width="66" x="1185" y="61"/><ellipse cx="1200" cy="77" fill="#A9DCDF" rx="11" ry="11" style="stroke:#A80036;stroke-width:1.0;"/><path d="M1200.1094,72.3438 L1198.9531,77.4219 L1201.2813,77.4219 L1200.1094,72.3438 Z M1198.625,70.1094 L1201.6094,70.1094 L1204.9688,82.5 L1202.5156,82.5 L1201.75,79.4375 L1198.4688,79.4375 L1197.7188,82.5 L1195.2813,82.5 L1198.625,70.1094 Z " fill="#000000"/><text fill="#000000" font-family="sans-serif" font-size="12" font-style="italic" lengthAdjust="spacingAndGlyphs" textLength="34" x="1214" y="81.1543">State</text><line style="stroke:#A80036;stroke-width:1.5;" x1="1186" x2="1250" y1="93" y2="93"/><line style="stroke:#A80036;stroke-width:1.5;" x1="1186" x2="1250" y1="101" y2="101"/><!--MD5=[ebab1489da25b3a17d3d2750402b689e]
class FireState--><rect codeLine="70" fill="#FEFECE" filter="url(#f1qyqz29ytrhhw)" height="86.4141" id="FireState" style="stroke:#A80036;stroke-width:1.5;" width="128" x="1154" y="233"/><ellipse cx="1186.55" cy="249" fill="#ADD1B2" rx="11" ry="11" style="stroke:#A80036;stroke-width:1.0;"/><path d="M1189.5188,254.6406 Q1188.9406,254.9375 1188.3,255.0781 Q1187.6594,255.2344 1186.9563,255.2344 Q1184.4563,255.2344 1183.1281,253.5938 Q1181.8156,251.9375 1181.8156,248.8125 Q1181.8156,245.6875 1183.1281,244.0313 Q1184.4563,242.375 1186.9563,242.375 Q1187.6594,242.375 1188.3,242.5313 Q1188.9563,242.6875 1189.5188,242.9844 L1189.5188,245.7031 Q1188.8938,245.125 1188.3,244.8594 Q1187.7063,244.5781 1187.0813,244.5781 Q1185.7375,244.5781 1185.05,245.6563 Q1184.3625,246.7188 1184.3625,248.8125 Q1184.3625,250.9063 1185.05,251.9844 Q1185.7375,253.0469 1187.0813,253.0469 Q1187.7063,253.0469 1188.3,252.7813 Q1188.8938,252.5 1189.5188,251.9219 L1189.5188,254.6406 Z " fill="#000000"/><text fill="#000000" font-family="sans-serif" font-size="12" lengthAdjust="spacingAndGlyphs" textLength="57" x="1204.45" y="253.1543">FireState</text><line style="stroke:#A80036;stroke-width:1.5;" x1="1155" x2="1281" y1="265" y2="265"/><rect fill="none" height="6" style="stroke:#C82930;stroke-width:1.0;" width="6" x="1162" y="273"/><text fill="#000000" font-family="sans-serif" font-size="11" lengthAdjust="spacingAndGlyphs" textLength="102" x="1174" y="279.2104">FIRE_STATE state;</text><rect fill="none" height="6" style="stroke:#C82930;stroke-width:1.0;" width="6" x="1162" y="285.8047"/><text fill="#000000" font-family="sans-serif" font-size="11" lengthAdjust="spacingAndGlyphs" textLength="100" x="1174" y="292.0151">double flamability</text><text fill="#000000" font-family="sans-serif" font-size="11" lengthAdjust="spacingAndGlyphs" textLength="4" x="1174" y="304.8198">-</text><line style="stroke:#A80036;stroke-width:1.5;" x1="1155" x2="1281" y1="311.4141" y2="311.4141"/><!--MD5=[3740550df71ddcc2b7f8273dd805b61a]
class FIRE_STATE--><rect codeLine="80" fill="#FEFECE" filter="url(#f1qyqz29ytrhhw)" height="60.8047" id="FIRE_STATE" style="stroke:#A80036;stroke-width:1.5;" width="152" x="1317" y="245.5"/><ellipse cx="1354.5" cy="261.5" fill="#EB937F" rx="11" ry="11" style="stroke:#A80036;stroke-width:1.0;"/><path d="M1358.6094,267.5 L1350.8906,267.5 L1350.8906,255.1094 L1358.6094,255.1094 L1358.6094,257.2656 L1353.3438,257.2656 L1353.3438,259.9375 L1358.1094,259.9375 L1358.1094,262.0938 L1353.3438,262.0938 L1353.3438,265.3438 L1358.6094,265.3438 L1358.6094,267.5 Z " fill="#000000"/><text fill="#000000" font-family="sans-serif" font-size="12" lengthAdjust="spacingAndGlyphs" textLength="70" x="1373.5" y="265.6543">FIRE_STATE</text><line style="stroke:#A80036;stroke-width:1.5;" x1="1318" x2="1468" y1="277.5" y2="277.5"/><text fill="#000000" font-family="sans-serif" font-size="11" lengthAdjust="spacingAndGlyphs" textLength="140" x="1323" y="291.7104">ONFIRE, BURNT, NORMAL</text><line style="stroke:#A80036;stroke-width:1.5;" x1="1318" x2="1468" y1="298.3047" y2="298.3047"/><path d="M1335.5,65 L1335.5,105.2656 A0,0 0 0 0 1335.5,105.2656 L1389,105.2656 L1393,245.29 L1397,105.2656 L1450.5,105.2656 A0,0 0 0 0 1450.5,105.2656 L1450.5,75 L1440.5,65 L1335.5,65 A0,0 0 0 0 1335.5,65 " fill="#FBFB77" filter="url(#f1qyqz29ytrhhw)" style="stroke:#A80036;stroke-width:1.0;"/><path d="M1440.5,65 L1440.5,75 L1450.5,75 L1440.5,65 " fill="#FBFB77" style="stroke:#A80036;stroke-width:1.0;"/><text fill="#000000" font-family="sans-serif" font-size="13" lengthAdjust="spacingAndGlyphs" textLength="61" x="1341.5" y="82.0669">Nested in</text><text fill="#000000" font-family="sans-serif" font-size="13" lengthAdjust="spacingAndGlyphs" textLength="94" x="1341.5" y="97.1997">FireState class</text><!--MD5=[db2232425420b6d2573340bf89fe6abf]
class CONWAY_STATE--><rect codeLine="88" fill="#FEFECE" filter="url(#f1qyqz29ytrhhw)" height="60.8047" id="CONWAY_STATE" style="stroke:#A80036;stroke-width:1.5;" width="128" x="1504" y="245.5"/><ellipse cx="1519" cy="261.5" fill="#EB937F" rx="11" ry="11" style="stroke:#A80036;stroke-width:1.0;"/><path d="M1523.1094,267.5 L1515.3906,267.5 L1515.3906,255.1094 L1523.1094,255.1094 L1523.1094,257.2656 L1517.8438,257.2656 L1517.8438,259.9375 L1522.6094,259.9375 L1522.6094,262.0938 L1517.8438,262.0938 L1517.8438,265.3438 L1523.1094,265.3438 L1523.1094,267.5 Z " fill="#000000"/><text fill="#000000" font-family="sans-serif" font-size="12" lengthAdjust="spacingAndGlyphs" textLength="96" x="1533" y="265.6543">CONWAY_STATE</text><line style="stroke:#A80036;stroke-width:1.5;" x1="1505" x2="1631" y1="277.5" y2="277.5"/><text fill="#000000" font-family="sans-serif" font-size="11" lengthAdjust="spacingAndGlyphs" textLength="68" x="1510" y="291.7104">DEAD, ALIVE</text><line style="stroke:#A80036;stroke-width:1.5;" x1="1505" x2="1631" y1="298.3047" y2="298.3047"/><path d="M1497.5,65 L1497.5,105.2656 A0,0 0 0 0 1497.5,105.2656 L1564,105.2656 L1568,245.29 L1572,105.2656 L1638.5,105.2656 A0,0 0 0 0 1638.5,105.2656 L1638.5,75 L1628.5,65 L1497.5,65 A0,0 0 0 0 1497.5,65 " fill="#FBFB77" filter="url(#f1qyqz29ytrhhw)" style="stroke:#A80036;stroke-width:1.0;"/><path d="M1628.5,65 L1628.5,75 L1638.5,75 L1628.5,65 " fill="#FBFB77" style="stroke:#A80036;stroke-width:1.0;"/><text fill="#000000" font-family="sans-serif" font-size="13" lengthAdjust="spacingAndGlyphs" textLength="61" x="1503.5" y="82.0669">Nested in</text><text fill="#000000" font-family="sans-serif" font-size="13" lengthAdjust="spacingAndGlyphs" textLength="120" x="1503.5" y="97.1997">ConwayState class</text><!--MD5=[f550ebcc8342cab85ed8a27eaf97f3b3]
class StateRule--><rect codeLine="97" fill="#FEFECE" filter="url(#f1qyqz29ytrhhw)" height="86.4141" id="StateRule" style="stroke:#A80036;stroke-width:1.5;" width="196" x="1839" y="233"/><ellipse cx="1854" cy="249" fill="#A9DCDF" rx="11" ry="11" style="stroke:#A80036;stroke-width:1.0;"/><path d="M1854.1094,244.3438 L1852.9531,249.4219 L1855.2813,249.4219 L1854.1094,244.3438 Z M1852.625,242.1094 L1855.6094,242.1094 L1858.9688,254.5 L1856.5156,254.5 L1855.75,251.4375 L1852.4688,251.4375 L1851.7188,254.5 L1849.2813,254.5 L1852.625,242.1094 Z " fill="#000000"/><text fill="#000000" font-family="sans-serif" font-size="12" font-style="italic" lengthAdjust="spacingAndGlyphs" textLength="61" x="1868" y="253.1543">StateRule</text><rect fill="#FFFFFF" height="15.9688" style="stroke:#000000;stroke-width:1.0;stroke-dasharray:2.0,2.0;" width="101" x="1937" y="230"/><text fill="#000000" font-family="sans-serif" font-size="12" font-style="italic" lengthAdjust="spacingAndGlyphs" textLength="99" x="1938" y="242.1387">T extends State</text><line style="stroke:#A80036;stroke-width:1.5;" x1="1840" x2="2034" y1="265" y2="265"/><rect fill="none" height="6" style="stroke:#C82930;stroke-width:1.0;" width="6" x="1847" y="273"/><text fill="#000000" font-family="sans-serif" font-size="11" lengthAdjust="spacingAndGlyphs" textLength="147" x="1859" y="279.2104">int rule1; //arbitrary fields</text><rect fill="none" height="6" style="stroke:#C82930;stroke-width:1.0;" width="6" x="1847" y="285.8047"/><text fill="#000000" font-family="sans-serif" font-size="11" lengthAdjust="spacingAndGlyphs" textLength="75" x="1859" y="292.0151">double rule2;</text><rect fill="none" height="6" style="stroke:#C82930;stroke-width:1.0;" width="6" x="1847" y="298.6094"/><text fill="#000000" font-family="sans-serif" font-size="11" lengthAdjust="spacingAndGlyphs" textLength="105" x="1859" y="304.8198">int changeChance;</text><line style="stroke:#A80036;stroke-width:1.5;" x1="1840" x2="2034" y1="311.4141" y2="311.4141"/><path d="M1833.5,57.5 L1833.5,112.8984 A0,0 0 0 0 1833.5,112.8984 L1933,112.8984 L1937,232.8 L1941,112.8984 L2040.5,112.8984 A0,0 0 0 0 2040.5,112.8984 L2040.5,67.5 L2030.5,57.5 L1833.5,57.5 A0,0 0 0 0 1833.5,57.5 " fill="#FBFB77" filter="url(#f1qyqz29ytrhhw)" style="stroke:#A80036;stroke-width:1.0;"/><path d="M2030.5,57.5 L2030.5,67.5 L2040.5,67.5 L2030.5,57.5 " fill="#FBFB77" style="stroke:#A80036;stroke-width:1.0;"/><text fill="#000000" font-family="sans-serif" font-size="13" lengthAdjust="spacingAndGlyphs" textLength="169" x="1839.5" y="74.5669">A Possible way of updating</text><text fill="#000000" font-family="sans-serif" font-size="13" lengthAdjust="spacingAndGlyphs" textLength="186" x="1839.5" y="89.6997">the state of nodes during the</text><text fill="#000000" font-family="sans-serif" font-size="13" lengthAdjust="spacingAndGlyphs" textLength="73" x="1839.5" y="104.8325">simulation?</text><!--MD5=[97d912d5523e732eb6b7b29006e034fc]
class FireRule--><rect codeLine="103" fill="#FEFECE" filter="url(#f1qyqz29ytrhhw)" height="99.2188" id="FireRule" style="stroke:#A80036;stroke-width:1.5;" width="143" x="1663.5" y="392"/><ellipse cx="1678.5" cy="408" fill="#ADD1B2" rx="11" ry="11" style="stroke:#A80036;stroke-width:1.0;"/><path d="M1681.4688,413.6406 Q1680.8906,413.9375 1680.25,414.0781 Q1679.6094,414.2344 1678.9063,414.2344 Q1676.4063,414.2344 1675.0781,412.5938 Q1673.7656,410.9375 1673.7656,407.8125 Q1673.7656,404.6875 1675.0781,403.0313 Q1676.4063,401.375 1678.9063,401.375 Q1679.6094,401.375 1680.25,401.5313 Q1680.9063,401.6875 1681.4688,401.9844 L1681.4688,404.7031 Q1680.8438,404.125 1680.25,403.8594 Q1679.6563,403.5781 1679.0313,403.5781 Q1677.6875,403.5781 1677,404.6563 Q1676.3125,405.7188 1676.3125,407.8125 Q1676.3125,409.9063 1677,410.9844 Q1677.6875,412.0469 1679.0313,412.0469 Q1679.6563,412.0469 1680.25,411.7813 Q1680.8438,411.5 1681.4688,410.9219 L1681.4688,413.6406 Z " fill="#000000"/><text fill="#000000" font-family="sans-serif" font-size="12" lengthAdjust="spacingAndGlyphs" textLength="50" x="1692.5" y="412.1543">FireRule</text><rect fill="#FFFFFF" height="15.9688" style="stroke:#000000;stroke-width:1.0;stroke-dasharray:2.0,2.0;" width="59" x="1750.5" y="389"/><text fill="#000000" font-family="sans-serif" font-size="12" font-style="italic" lengthAdjust="spacingAndGlyphs" textLength="57" x="1751.5" y="401.1387">FireState</text><line style="stroke:#A80036;stroke-width:1.5;" x1="1664.5" x2="1805.5" y1="424" y2="424"/><rect fill="none" height="6" style="stroke:#C82930;stroke-width:1.0;" width="6" x="1671.5" y="432"/><text fill="#000000" font-family="sans-serif" font-size="11" lengthAdjust="spacingAndGlyphs" textLength="100" x="1683.5" y="438.2104">double flamability</text><rect fill="none" height="6" style="stroke:#C82930;stroke-width:1.0;" width="6" x="1671.5" y="444.8047"/><text fill="#000000" font-family="sans-serif" font-size="11" lengthAdjust="spacingAndGlyphs" textLength="68" x="1683.5" y="451.0151">double stuff</text><line style="stroke:#A80036;stroke-width:1.5;" x1="1664.5" x2="1805.5" y1="457.6094" y2="457.6094"/><ellipse cx="1674.5" cy="468.6094" fill="#84BE84" rx="3" ry="3" style="stroke:#038048;stroke-width:1.0;"/><text fill="#000000" font-family="sans-serif" font-size="11" lengthAdjust="spacingAndGlyphs" textLength="49" x="1683.5" y="471.8198">getters()</text><ellipse cx="1674.5" cy="481.4141" fill="#84BE84" rx="3" ry="3" style="stroke:#038048;stroke-width:1.0;"/><text fill="#000000" font-family="sans-serif" font-size="11" lengthAdjust="spacingAndGlyphs" textLength="49" x="1683.5" y="484.6245">setters()</text><!--MD5=[52b82aa5d5ad3262ae4832b2c3d55967]
class Spreadable--><rect codeLine="114" fill="#FEFECE" filter="url(#f1qyqz29ytrhhw)" height="73.6094" id="Spreadable" style="stroke:#A80036;stroke-width:1.5;" width="135" x="1667.5" y="239"/><ellipse cx="1696.45" cy="255" fill="#B4A7E5" rx="11" ry="11" style="stroke:#A80036;stroke-width:1.0;"/><path d="M1692.3719,250.7656 L1692.3719,248.6094 L1699.7625,248.6094 L1699.7625,250.7656 L1697.2938,250.7656 L1697.2938,258.8438 L1699.7625,258.8438 L1699.7625,261 L1692.3719,261 L1692.3719,258.8438 L1694.8406,258.8438 L1694.8406,250.7656 L1692.3719,250.7656 Z " fill="#000000"/><text fill="#000000" font-family="sans-serif" font-size="12" font-style="italic" lengthAdjust="spacingAndGlyphs" textLength="72" x="1713.55" y="259.1543">Spreadable</text><line style="stroke:#A80036;stroke-width:1.5;" x1="1668.5" x2="1801.5" y1="271" y2="271"/><line style="stroke:#A80036;stroke-width:1.5;" x1="1668.5" x2="1801.5" y1="279" y2="279"/><ellipse cx="1678.5" cy="290" fill="#84BE84" rx="3" ry="3" style="stroke:#038048;stroke-width:1.0;"/><text fill="#000000" font-family="sans-serif" font-size="11" lengthAdjust="spacingAndGlyphs" textLength="109" x="1687.5" y="293.2104">getSpreadChance()</text><ellipse cx="1678.5" cy="302.8047" fill="#84BE84" rx="3" ry="3" style="stroke:#038048;stroke-width:1.0;"/><text fill="#000000" font-family="sans-serif" font-size="11" lengthAdjust="spacingAndGlyphs" textLength="109" x="1687.5" y="306.0151">setSpreadChance()</text><!--MD5=[e6ba4962bbf4b372ed54d9422511928f]
class ConwayRule--><rect codeLine="110" fill="#FEFECE" filter="url(#f1qyqz29ytrhhw)" height="60.8047" id="ConwayRule" style="stroke:#A80036;stroke-width:1.5;" width="193" x="1841.5" y="411"/><ellipse cx="1856.5" cy="427" fill="#ADD1B2" rx="11" ry="11" style="stroke:#A80036;stroke-width:1.0;"/><path d="M1859.4688,432.6406 Q1858.8906,432.9375 1858.25,433.0781 Q1857.6094,433.2344 1856.9063,433.2344 Q1854.4063,433.2344 1853.0781,431.5938 Q1851.7656,429.9375 1851.7656,426.8125 Q1851.7656,423.6875 1853.0781,422.0313 Q1854.4063,420.375 1856.9063,420.375 Q1857.6094,420.375 1858.25,420.5313 Q1858.9063,420.6875 1859.4688,420.9844 L1859.4688,423.7031 Q1858.8438,423.125 1858.25,422.8594 Q1857.6563,422.5781 1857.0313,422.5781 Q1855.6875,422.5781 1855,423.6563 Q1854.3125,424.7188 1854.3125,426.8125 Q1854.3125,428.9063 1855,429.9844 Q1855.6875,431.0469 1857.0313,431.0469 Q1857.6563,431.0469 1858.25,430.7813 Q1858.8438,430.5 1859.4688,429.9219 L1859.4688,432.6406 Z " fill="#000000"/><text fill="#000000" font-family="sans-serif" font-size="12" lengthAdjust="spacingAndGlyphs" textLength="74" x="1870.5" y="431.1543">ConwayRule</text><rect fill="#FFFFFF" height="15.9688" style="stroke:#000000;stroke-width:1.0;stroke-dasharray:2.0,2.0;" width="85" x="1952.5" y="408"/><text fill="#000000" font-family="sans-serif" font-size="12" font-style="italic" lengthAdjust="spacingAndGlyphs" textLength="83" x="1953.5" y="420.1387">ConwayState</text><line style="stroke:#A80036;stroke-width:1.5;" x1="1842.5" x2="2033.5" y1="443" y2="443"/><rect fill="none" height="6" style="stroke:#C82930;stroke-width:1.0;" width="6" x="1849.5" y="451"/><text fill="#000000" font-family="sans-serif" font-size="11" lengthAdjust="spacingAndGlyphs" textLength="92" x="1861.5" y="457.2104">numPeopleDead</text><line style="stroke:#A80036;stroke-width:1.5;" x1="1842.5" x2="2033.5" y1="463.8047" y2="463.8047"/><!--MD5=[f9df778c6d301a6473fd9f32957920a3]
reverse link NodeManager to RectangularManager--><path d="M311,345.95 C311,371.45 311,398.65 311,417.3 " fill="none" id="NodeManager-backto-RectangularManager" style="stroke:#A80036;stroke-width:1.0;"/><polygon fill="none" points="304,345.61,311,325.61,318,345.61,304,345.61" style="stroke:#A80036;stroke-width:1.0;"/><!--MD5=[e0bc5ce58a70bd93f1a754c94cc1d757]
reverse link SimulationSystem to FireSystem--><path d="M629,352.36 C629,370.41 629,388.88 629,404.21 " fill="none" id="SimulationSystem-backto-FireSystem" style="stroke:#A80036;stroke-width:1.0;"/><polygon fill="none" points="622,352.35,629,332.35,636,352.35,622,352.35" style="stroke:#A80036;stroke-width:1.0;"/><!--MD5=[2f209e79a6f56fd6abc4bdcf3713a51f]
reverse link State to FireState--><path d="M1218,129.2 C1218,160.31 1218,202.08 1218,232.94 " fill="none" id="State-backto-FireState" style="stroke:#A80036;stroke-width:1.0;"/><polygon fill="none" points="1211,129.18,1218,109.18,1225,129.18,1211,129.18" style="stroke:#A80036;stroke-width:1.0;"/><!--MD5=[c7f3715df13489ef8c129011f807c027]
reverse link StateRule to FireRule--><path d="M1869.28,331.82 C1845.26,351.26 1818.41,372.99 1795.07,391.88 " fill="none" id="StateRule-backto-FireRule" style="stroke:#A80036;stroke-width:1.0;"/><polygon fill="none" points="1865.03,326.25,1884.98,319.11,1873.84,337.13,1865.03,326.25" style="stroke:#A80036;stroke-width:1.0;"/><!--MD5=[36f4c6dd431eb767e118c6478c721df5]
reverse link Spreadable to FireRule--><path d="M1735,333.31 C1735,352.38 1735,373.49 1735,391.91 " fill="none" id="Spreadable-backto-FireRule" style="stroke:#A80036;stroke-width:1.0;stroke-dasharray:7.0,7.0;"/><polygon fill="none" points="1728,333.29,1735,313.29,1742,333.29,1728,333.29" style="stroke:#A80036;stroke-width:1.0;"/><!--MD5=[2ab1400119613dcac85cdc891b6c89f0]
reverse link StateRule to ConwayRule--><path d="M1937.38,339.38 C1937.53,363.94 1937.7,390.98 1937.82,410.92 " fill="none" id="StateRule-backto-ConwayRule" style="stroke:#A80036;stroke-width:1.0;"/><polygon fill="none" points="1930.38,339.15,1937.26,319.11,1944.38,339.06,1930.38,339.15" style="stroke:#A80036;stroke-width:1.0;"/><!--MD5=[a940734bc466933c86a85407291cf855]
@startuml
class Node<T extends State> {
	- T myState;
	- T nextState;
	- StateRule<T>

	+addNeighbor(Node n);
	+getState(): T;
	+determineNextState();
	+advanceState();
	+get<AspectOfState>();
}

note top of NodeManager
	arranges nodes and assigns
	neighbors based on shape 
	and node amounts. Does
	EVERYTHING with nodes
end note
abstract class NodeManager<T extends State> {
	-ArrayList<Node<T>> nodes;
	-StateRules<T> rules;
	+addNode(Node<T> node);
	+updateNodes();
}

note top of SimulationSystem
	getConfigurations()
	returns a map of
	the value and how
	to represent it 
	(i.e. a slider or whatever)
end note

class SimulationSystem {
	-NodeManager manager
	-StateRules<T> rules;
	+setConfiguration(String name, double value) : double
	+getConfigurations() : List<MapEntries<String, String>>
	+reset()
}
note bottom of RectangularManager
	When nodes are added their neighbors
	are configured in a rectangular pattern.
end note
class RectangularManager<T extends State> extends NodeManager {

}

note top of SimulationManager
	Set the simulation and the system
	the goes with it.
end note

class SimulationManager {
	+resetSimulation()
	+getConfigurations();
	+setConfiguration(String config, double value);
	+setSystem(SYSTEM system);
	+availableSystems();
}

class FireSystem extends SimulationSystem {
	-int flamibility
	+get<Configuration>(String name) : Value
}

abstract class State {
}

class FireState extends State {
	-FIRE_STATE state;
	-double flamability
	-
}

note top of FIRE_STATE
	Nested in
	FireState class
end note
enum FIRE_STATE {
	ONFIRE, BURNT, NORMAL
}

note top of CONWAY_STATE
	Nested in
	ConwayState class
end note
enum CONWAY_STATE {
	DEAD, ALIVE
}

note top of StateRule
	A Possible way of updating
	the state of nodes during the
	simulation?
end note
abstract class StateRule<T extends State> {
	-int rule1; //arbitrary fields
	-double rule2; 
	-int changeChance; 
}

class FireRule<FireState> extends StateRule implements Spreadable {
	-double flamability
	-double stuff
	+getters()
	+setters()
}

class ConwayRule<ConwayState> extends StateRule {
	-numPeopleDead
}

interface Spreadable {
	+getSpreadChance()
	+setSpreadChance()
}

@enduml

PlantUML version 1.2020.22(Sun Dec 06 04:36:27 EST 2020)
(GPL source distribution)
Java Runtime: OpenJDK Runtime Environment
JVM: OpenJDK 64-Bit Server VM
Default Encoding: UTF-8
Language: en
Country: US
--></g></svg>