<?xml version="1.0" encoding="UTF-8" standalone="no"?><svg xmlns="http://www.w3.org/2000/svg" xmlns:xlink="http://www.w3.org/1999/xlink" contentScriptType="application/ecmascript" contentStyleType="text/css" height="600px" preserveAspectRatio="none" style="width:2028px;height:600px;" version="1.1" viewBox="0 0 2028 600" width="2028px" zoomAndPan="magnify"><defs><filter height="300%" id="flsrnzfkx5z5" width="300%" x="-1" y="-1"><feGaussianBlur result="blurOut" stdDeviation="2.0"/><feColorMatrix in="blurOut" result="blurOut2" type="matrix" values="0 0 0 0 0 0 0 0 0 0 0 0 0 0 0 0 0 0 .4 0"/><feOffset dx="4.0" dy="4.0" in="blurOut2" result="blurOut3"/><feBlend in="SourceGraphic" in2="blurOut3" mode="normal"/></filter></defs><g><!--MD5=[fea3dc74c7473bae0133d22265a91e2f]
class Cell--><rect codeLine="1" fill="#FEFECE" filter="url(#flsrnzfkx5z5)" height="150.4375" id="Cell" style="stroke:#A80036;stroke-width:1.5;" width="157" x="7" y="10"/><ellipse cx="22" cy="26" fill="#ADD1B2" rx="11" ry="11" style="stroke:#A80036;stroke-width:1.0;"/><path d="M24.9688,31.6406 Q24.3906,31.9375 23.75,32.0781 Q23.1094,32.2344 22.4063,32.2344 Q19.9063,32.2344 18.5781,30.5938 Q17.2656,28.9375 17.2656,25.8125 Q17.2656,22.6875 18.5781,21.0313 Q19.9063,19.375 22.4063,19.375 Q23.1094,19.375 23.75,19.5313 Q24.4063,19.6875 24.9688,19.9844 L24.9688,22.7031 Q24.3438,22.125 23.75,21.8594 Q23.1563,21.5781 22.5313,21.5781 Q21.1875,21.5781 20.5,22.6563 Q19.8125,23.7188 19.8125,25.8125 Q19.8125,27.9063 20.5,28.9844 Q21.1875,30.0469 22.5313,30.0469 Q23.1563,30.0469 23.75,29.7813 Q24.3438,29.5 24.9688,28.9219 L24.9688,31.6406 Z " fill="#000000"/><text fill="#000000" font-family="sans-serif" font-size="12" lengthAdjust="spacingAndGlyphs" textLength="22" x="36" y="30.1543">Cell</text><rect fill="#FFFFFF" height="15.9688" style="stroke:#000000;stroke-width:1.0;stroke-dasharray:2.0,2.0;" width="101" x="66" y="7"/><text fill="#000000" font-family="sans-serif" font-size="12" font-style="italic" lengthAdjust="spacingAndGlyphs" textLength="99" x="67" y="19.1387">T extends State</text><line style="stroke:#A80036;stroke-width:1.5;" x1="8" x2="163" y1="42" y2="42"/><rect fill="none" height="6" style="stroke:#C82930;stroke-width:1.0;" width="6" x="15" y="50"/><text fill="#000000" font-family="sans-serif" font-size="11" lengthAdjust="spacingAndGlyphs" textLength="62" x="27" y="56.2104">T myState;</text><rect fill="none" height="6" style="stroke:#C82930;stroke-width:1.0;" width="6" x="15" y="62.8047"/><text fill="#000000" font-family="sans-serif" font-size="11" lengthAdjust="spacingAndGlyphs" textLength="69" x="27" y="69.0151">T nextState;</text><rect fill="none" height="6" style="stroke:#C82930;stroke-width:1.0;" width="6" x="15" y="75.6094"/><text fill="#000000" font-family="sans-serif" font-size="11" lengthAdjust="spacingAndGlyphs" textLength="79" x="27" y="81.8198">StateRule&lt;T&gt;</text><line style="stroke:#A80036;stroke-width:1.5;" x1="8" x2="163" y1="88.4141" y2="88.4141"/><ellipse cx="18" cy="99.4141" fill="#84BE84" rx="3" ry="3" style="stroke:#038048;stroke-width:1.0;"/><text fill="#000000" font-family="sans-serif" font-size="11" lengthAdjust="spacingAndGlyphs" textLength="116" x="27" y="102.6245">addNeighbor(Cell n);</text><ellipse cx="18" cy="112.2188" fill="#84BE84" rx="3" ry="3" style="stroke:#038048;stroke-width:1.0;"/><text fill="#000000" font-family="sans-serif" font-size="11" lengthAdjust="spacingAndGlyphs" textLength="75" x="27" y="115.4292">getState(): T;</text><ellipse cx="18" cy="125.0234" fill="#84BE84" rx="3" ry="3" style="stroke:#038048;stroke-width:1.0;"/><text fill="#000000" font-family="sans-serif" font-size="11" lengthAdjust="spacingAndGlyphs" textLength="125" x="27" y="128.2339">determineNextState();</text><ellipse cx="18" cy="137.8281" fill="#84BE84" rx="3" ry="3" style="stroke:#038048;stroke-width:1.0;"/><text fill="#000000" font-family="sans-serif" font-size="11" lengthAdjust="spacingAndGlyphs" textLength="89" x="27" y="141.0386">advanceState();</text><ellipse cx="18" cy="150.6328" fill="#84BE84" rx="3" ry="3" style="stroke:#038048;stroke-width:1.0;"/><text fill="#000000" font-family="sans-serif" font-size="11" lengthAdjust="spacingAndGlyphs" textLength="129" x="27" y="153.8433">get&lt;AspectOfState&gt;();</text><!--MD5=[680408a4c4d656f8ad74d77b7fb8b0dd]
class CellManager--><rect codeLine="19" fill="#FEFECE" filter="url(#flsrnzfkx5z5)" height="99.2188" id="CellManager" style="stroke:#A80036;stroke-width:1.5;" width="212" x="190.5" y="226.5"/><ellipse cx="205.5" cy="242.5" fill="#A9DCDF" rx="11" ry="11" style="stroke:#A80036;stroke-width:1.0;"/><path d="M205.6094,237.8438 L204.4531,242.9219 L206.7813,242.9219 L205.6094,237.8438 Z M204.125,235.6094 L207.1094,235.6094 L210.4688,248 L208.0156,248 L207.25,244.9375 L203.9688,244.9375 L203.2188,248 L200.7813,248 L204.125,235.6094 Z " fill="#000000"/><text fill="#000000" font-family="sans-serif" font-size="12" font-style="italic" lengthAdjust="spacingAndGlyphs" textLength="77" x="219.5" y="246.6543">CellManager</text><rect fill="#FFFFFF" height="15.9688" style="stroke:#000000;stroke-width:1.0;stroke-dasharray:2.0,2.0;" width="101" x="304.5" y="223.5"/><text fill="#000000" font-family="sans-serif" font-size="12" font-style="italic" lengthAdjust="spacingAndGlyphs" textLength="99" x="305.5" y="235.6387">T extends State</text><line style="stroke:#A80036;stroke-width:1.5;" x1="191.5" x2="401.5" y1="258.5" y2="258.5"/><rect fill="none" height="6" style="stroke:#C82930;stroke-width:1.0;" width="6" x="198.5" y="266.5"/><text fill="#000000" font-family="sans-serif" font-size="11" lengthAdjust="spacingAndGlyphs" textLength="148" x="210.5" y="272.7104">ArrayList&lt;Cell&lt;T&gt;&gt; cells;</text><rect fill="none" height="6" style="stroke:#C82930;stroke-width:1.0;" width="6" x="198.5" y="279.3047"/><text fill="#000000" font-family="sans-serif" font-size="11" lengthAdjust="spacingAndGlyphs" textLength="123" x="210.5" y="285.5151">StateRules&lt;T&gt; rules;</text><line style="stroke:#A80036;stroke-width:1.5;" x1="191.5" x2="401.5" y1="292.1094" y2="292.1094"/><ellipse cx="201.5" cy="303.1094" fill="#84BE84" rx="3" ry="3" style="stroke:#038048;stroke-width:1.0;"/><text fill="#000000" font-family="sans-serif" font-size="11" lengthAdjust="spacingAndGlyphs" textLength="123" x="210.5" y="306.3198">addCell(Cell&lt;T&gt; cell);</text><ellipse cx="201.5" cy="315.9141" fill="#84BE84" rx="3" ry="3" style="stroke:#038048;stroke-width:1.0;"/><text fill="#000000" font-family="sans-serif" font-size="11" lengthAdjust="spacingAndGlyphs" textLength="79" x="210.5" y="319.1245">updateCells();</text><path d="M199.5,49.5 L199.5,120.0313 A0,0 0 0 0 199.5,120.0313 L292.5,120.0313 L296.5,226.32 L300.5,120.0313 L393.5,120.0313 A0,0 0 0 0 393.5,120.0313 L393.5,59.5 L383.5,49.5 L199.5,49.5 A0,0 0 0 0 199.5,49.5 " fill="#FBFB77" filter="url(#flsrnzfkx5z5)" style="stroke:#A80036;stroke-width:1.0;"/><path d="M383.5,49.5 L383.5,59.5 L393.5,59.5 L383.5,49.5 " fill="#FBFB77" style="stroke:#A80036;stroke-width:1.0;"/><text fill="#000000" font-family="sans-serif" font-size="13" lengthAdjust="spacingAndGlyphs" textLength="169" x="205.5" y="66.5669">arranges cells and assigns</text><text fill="#000000" font-family="sans-serif" font-size="13" lengthAdjust="spacingAndGlyphs" textLength="169" x="205.5" y="81.6997">neighbors based on shape</text><text fill="#000000" font-family="sans-serif" font-size="13" lengthAdjust="spacingAndGlyphs" textLength="151" x="205.5" y="96.8325">and cell amounts. Does</text><text fill="#000000" font-family="sans-serif" font-size="13" lengthAdjust="spacingAndGlyphs" textLength="141" x="205.5" y="111.9653">EVERYTHING with cells</text><!--MD5=[2446113d27393e64c42682ed5a7fa59f]
class SimulationSystem--><rect codeLine="34" fill="#FEFECE" filter="url(#flsrnzfkx5z5)" height="112.0234" id="SimulationSystem" style="stroke:#A80036;stroke-width:1.5;" width="342" x="437.5" y="220"/><ellipse cx="549.25" cy="236" fill="#ADD1B2" rx="11" ry="11" style="stroke:#A80036;stroke-width:1.0;"/><path d="M552.2188,241.6406 Q551.6406,241.9375 551,242.0781 Q550.3594,242.2344 549.6563,242.2344 Q547.1563,242.2344 545.8281,240.5938 Q544.5156,238.9375 544.5156,235.8125 Q544.5156,232.6875 545.8281,231.0313 Q547.1563,229.375 549.6563,229.375 Q550.3594,229.375 551,229.5313 Q551.6563,229.6875 552.2188,229.9844 L552.2188,232.7031 Q551.5938,232.125 551,231.8594 Q550.4063,231.5781 549.7813,231.5781 Q548.4375,231.5781 547.75,232.6563 Q547.0625,233.7188 547.0625,235.8125 Q547.0625,237.9063 547.75,238.9844 Q548.4375,240.0469 549.7813,240.0469 Q550.4063,240.0469 551,239.7813 Q551.5938,239.5 552.2188,238.9219 L552.2188,241.6406 Z " fill="#000000"/><text fill="#000000" font-family="sans-serif" font-size="12" lengthAdjust="spacingAndGlyphs" textLength="110" x="569.75" y="240.1543">SimulationSystem</text><line style="stroke:#A80036;stroke-width:1.5;" x1="438.5" x2="778.5" y1="252" y2="252"/><rect fill="none" height="6" style="stroke:#C82930;stroke-width:1.0;" width="6" x="445.5" y="260"/><text fill="#000000" font-family="sans-serif" font-size="11" lengthAdjust="spacingAndGlyphs" textLength="125" x="457.5" y="266.2104">CellManager manager</text><rect fill="none" height="6" style="stroke:#C82930;stroke-width:1.0;" width="6" x="445.5" y="272.8047"/><text fill="#000000" font-family="sans-serif" font-size="11" lengthAdjust="spacingAndGlyphs" textLength="123" x="457.5" y="279.0151">StateRules&lt;T&gt; rules;</text><line style="stroke:#A80036;stroke-width:1.5;" x1="438.5" x2="778.5" y1="285.6094" y2="285.6094"/><ellipse cx="448.5" cy="296.6094" fill="#84BE84" rx="3" ry="3" style="stroke:#038048;stroke-width:1.0;"/><text fill="#000000" font-family="sans-serif" font-size="11" lengthAdjust="spacingAndGlyphs" textLength="302" x="457.5" y="299.8198">setConfiguration(String name, double value) : double</text><ellipse cx="448.5" cy="309.4141" fill="#84BE84" rx="3" ry="3" style="stroke:#038048;stroke-width:1.0;"/><text fill="#000000" font-family="sans-serif" font-size="11" lengthAdjust="spacingAndGlyphs" textLength="316" x="457.5" y="312.6245">getConfigurations() : List&lt;MapEntries&lt;String, String&gt;&gt;</text><ellipse cx="448.5" cy="322.2188" fill="#84BE84" rx="3" ry="3" style="stroke:#038048;stroke-width:1.0;"/><text fill="#000000" font-family="sans-serif" font-size="11" lengthAdjust="spacingAndGlyphs" textLength="38" x="457.5" y="325.4292">reset()</text><path d="M519,42 L519,127.6641 A0,0 0 0 0 519,127.6641 L604.5,127.6641 L608.5,219.8 L612.5,127.6641 L698,127.6641 A0,0 0 0 0 698,127.6641 L698,52 L688,42 L519,42 A0,0 0 0 0 519,42 " fill="#FBFB77" filter="url(#flsrnzfkx5z5)" style="stroke:#A80036;stroke-width:1.0;"/><path d="M688,42 L688,52 L698,52 L688,42 " fill="#FBFB77" style="stroke:#A80036;stroke-width:1.0;"/><text fill="#000000" font-family="sans-serif" font-size="13" lengthAdjust="spacingAndGlyphs" textLength="123" x="525" y="59.0669">getConfigurations()</text><text fill="#000000" font-family="sans-serif" font-size="13" lengthAdjust="spacingAndGlyphs" textLength="107" x="525" y="74.1997">returns a map of</text><text fill="#000000" font-family="sans-serif" font-size="13" lengthAdjust="spacingAndGlyphs" textLength="116" x="525" y="89.3325">the value and how</text><text fill="#000000" font-family="sans-serif" font-size="13" lengthAdjust="spacingAndGlyphs" textLength="91" x="525" y="104.4653">to represent it</text><text fill="#000000" font-family="sans-serif" font-size="13" lengthAdjust="spacingAndGlyphs" textLength="158" x="525" y="119.5981">(i.e. a slider or whatever)</text><!--MD5=[824c8458a7dfa1d39ad509c436c687e3]
class RectangularManager--><rect codeLine="45" fill="#FEFECE" filter="url(#flsrnzfkx5z5)" height="48" id="RectangularManager" style="stroke:#A80036;stroke-width:1.5;" width="266" x="163.5" y="417.5"/><ellipse cx="178.5" cy="433.5" fill="#ADD1B2" rx="11" ry="11" style="stroke:#A80036;stroke-width:1.0;"/><path d="M181.4688,439.1406 Q180.8906,439.4375 180.25,439.5781 Q179.6094,439.7344 178.9063,439.7344 Q176.4063,439.7344 175.0781,438.0938 Q173.7656,436.4375 173.7656,433.3125 Q173.7656,430.1875 175.0781,428.5313 Q176.4063,426.875 178.9063,426.875 Q179.6094,426.875 180.25,427.0313 Q180.9063,427.1875 181.4688,427.4844 L181.4688,430.2031 Q180.8438,429.625 180.25,429.3594 Q179.6563,429.0781 179.0313,429.0781 Q177.6875,429.0781 177,430.1563 Q176.3125,431.2188 176.3125,433.3125 Q176.3125,435.4063 177,436.4844 Q177.6875,437.5469 179.0313,437.5469 Q179.6563,437.5469 180.25,437.2813 Q180.8438,437 181.4688,436.4219 L181.4688,439.1406 Z " fill="#000000"/><text fill="#000000" font-family="sans-serif" font-size="12" lengthAdjust="spacingAndGlyphs" textLength="131" x="192.5" y="437.6543">RectangularManager</text><rect fill="#FFFFFF" height="15.9688" style="stroke:#000000;stroke-width:1.0;stroke-dasharray:2.0,2.0;" width="101" x="331.5" y="414.5"/><text fill="#000000" font-family="sans-serif" font-size="12" font-style="italic" lengthAdjust="spacingAndGlyphs" textLength="99" x="332.5" y="426.6387">T extends State</text><line style="stroke:#A80036;stroke-width:1.5;" x1="164.5" x2="428.5" y1="449.5" y2="449.5"/><line style="stroke:#A80036;stroke-width:1.5;" x1="164.5" x2="428.5" y1="457.5" y2="457.5"/><path d="M160.5,551 L160.5,591.2656 A0,0 0 0 0 160.5,591.2656 L432.5,591.2656 A0,0 0 0 0 432.5,591.2656 L432.5,561 L422.5,551 L300.5,551 L296.5,465.59 L292.5,551 L160.5,551 A0,0 0 0 0 160.5,551 " fill="#FBFB77" filter="url(#flsrnzfkx5z5)" style="stroke:#A80036;stroke-width:1.0;"/><path d="M422.5,551 L422.5,561 L432.5,561 L422.5,551 " fill="#FBFB77" style="stroke:#A80036;stroke-width:1.0;"/><text fill="#000000" font-family="sans-serif" font-size="13" lengthAdjust="spacingAndGlyphs" textLength="236" x="166.5" y="568.0669">When cells are added their neighbors</text><text fill="#000000" font-family="sans-serif" font-size="13" lengthAdjust="spacingAndGlyphs" textLength="251" x="166.5" y="583.1997">are configured in a rectangular pattern.</text><!--MD5=[b783ec3f66a5a9bd8ac24c18cc113061]
class SimulationManager--><rect codeLine="54" fill="#FEFECE" filter="url(#flsrnzfkx5z5)" height="112.0234" id="SimulationManager" style="stroke:#A80036;stroke-width:1.5;" width="284" x="814.5" y="220"/><ellipse cx="892.25" cy="236" fill="#ADD1B2" rx="11" ry="11" style="stroke:#A80036;stroke-width:1.0;"/><path d="M895.2188,241.6406 Q894.6406,241.9375 894,242.0781 Q893.3594,242.2344 892.6563,242.2344 Q890.1563,242.2344 888.8281,240.5938 Q887.5156,238.9375 887.5156,235.8125 Q887.5156,232.6875 888.8281,231.0313 Q890.1563,229.375 892.6563,229.375 Q893.3594,229.375 894,229.5313 Q894.6563,229.6875 895.2188,229.9844 L895.2188,232.7031 Q894.5938,232.125 894,231.8594 Q893.4063,231.5781 892.7813,231.5781 Q891.4375,231.5781 890.75,232.6563 Q890.0625,233.7188 890.0625,235.8125 Q890.0625,237.9063 890.75,238.9844 Q891.4375,240.0469 892.7813,240.0469 Q893.4063,240.0469 894,239.7813 Q894.5938,239.5 895.2188,238.9219 L895.2188,241.6406 Z " fill="#000000"/><text fill="#000000" font-family="sans-serif" font-size="12" lengthAdjust="spacingAndGlyphs" textLength="120" x="912.75" y="240.1543">SimulationManager</text><line style="stroke:#A80036;stroke-width:1.5;" x1="815.5" x2="1097.5" y1="252" y2="252"/><line style="stroke:#A80036;stroke-width:1.5;" x1="815.5" x2="1097.5" y1="260" y2="260"/><ellipse cx="825.5" cy="271" fill="#84BE84" rx="3" ry="3" style="stroke:#038048;stroke-width:1.0;"/><text fill="#000000" font-family="sans-serif" font-size="11" lengthAdjust="spacingAndGlyphs" textLength="98" x="834.5" y="274.2104">resetSimulation()</text><ellipse cx="825.5" cy="283.8047" fill="#84BE84" rx="3" ry="3" style="stroke:#038048;stroke-width:1.0;"/><text fill="#000000" font-family="sans-serif" font-size="11" lengthAdjust="spacingAndGlyphs" textLength="113" x="834.5" y="287.0151">getConfigurations();</text><ellipse cx="825.5" cy="296.6094" fill="#84BE84" rx="3" ry="3" style="stroke:#038048;stroke-width:1.0;"/><text fill="#000000" font-family="sans-serif" font-size="11" lengthAdjust="spacingAndGlyphs" textLength="258" x="834.5" y="299.8198">setConfiguration(String config, double value);</text><ellipse cx="825.5" cy="309.4141" fill="#84BE84" rx="3" ry="3" style="stroke:#038048;stroke-width:1.0;"/><text fill="#000000" font-family="sans-serif" font-size="11" lengthAdjust="spacingAndGlyphs" textLength="165" x="834.5" y="312.6245">setSystem(SYSTEM system);</text><ellipse cx="825.5" cy="322.2188" fill="#84BE84" rx="3" ry="3" style="stroke:#038048;stroke-width:1.0;"/><text fill="#000000" font-family="sans-serif" font-size="11" lengthAdjust="spacingAndGlyphs" textLength="112" x="834.5" y="325.4292">availableSystems();</text><path d="M835.5,65 L835.5,105.2656 A0,0 0 0 0 835.5,105.2656 L952.5,105.2656 L956.5,219.81 L960.5,105.2656 L1077.5,105.2656 A0,0 0 0 0 1077.5,105.2656 L1077.5,75 L1067.5,65 L835.5,65 A0,0 0 0 0 835.5,65 " fill="#FBFB77" filter="url(#flsrnzfkx5z5)" style="stroke:#A80036;stroke-width:1.0;"/><path d="M1067.5,65 L1067.5,75 L1077.5,75 L1067.5,65 " fill="#FBFB77" style="stroke:#A80036;stroke-width:1.0;"/><text fill="#000000" font-family="sans-serif" font-size="13" lengthAdjust="spacingAndGlyphs" textLength="221" x="841.5" y="82.0669">Set the simulation and the system</text><text fill="#000000" font-family="sans-serif" font-size="13" lengthAdjust="spacingAndGlyphs" textLength="101" x="841.5" y="97.1997">the goes with it.</text><!--MD5=[c77d2235cb15d741c461b9ce09d7d315]
class FireSystem--><rect codeLine="62" fill="#FEFECE" filter="url(#flsrnzfkx5z5)" height="73.6094" id="FireSystem" style="stroke:#A80036;stroke-width:1.5;" width="259" x="479" y="404.5"/><ellipse cx="570.25" cy="420.5" fill="#ADD1B2" rx="11" ry="11" style="stroke:#A80036;stroke-width:1.0;"/><path d="M573.2188,426.1406 Q572.6406,426.4375 572,426.5781 Q571.3594,426.7344 570.6563,426.7344 Q568.1563,426.7344 566.8281,425.0938 Q565.5156,423.4375 565.5156,420.3125 Q565.5156,417.1875 566.8281,415.5313 Q568.1563,413.875 570.6563,413.875 Q571.3594,413.875 572,414.0313 Q572.6563,414.1875 573.2188,414.4844 L573.2188,417.2031 Q572.5938,416.625 572,416.3594 Q571.4063,416.0781 570.7813,416.0781 Q569.4375,416.0781 568.75,417.1563 Q568.0625,418.2188 568.0625,420.3125 Q568.0625,422.4063 568.75,423.4844 Q569.4375,424.5469 570.7813,424.5469 Q571.4063,424.5469 572,424.2813 Q572.5938,424 573.2188,423.4219 L573.2188,426.1406 Z " fill="#000000"/><text fill="#000000" font-family="sans-serif" font-size="12" lengthAdjust="spacingAndGlyphs" textLength="68" x="590.75" y="424.6543">FireSystem</text><line style="stroke:#A80036;stroke-width:1.5;" x1="480" x2="737" y1="436.5" y2="436.5"/><rect fill="none" height="6" style="stroke:#C82930;stroke-width:1.0;" width="6" x="487" y="444.5"/><text fill="#000000" font-family="sans-serif" font-size="11" lengthAdjust="spacingAndGlyphs" textLength="72" x="499" y="450.7104">int flamibility</text><line style="stroke:#A80036;stroke-width:1.5;" x1="480" x2="737" y1="457.3047" y2="457.3047"/><ellipse cx="490" cy="468.3047" fill="#84BE84" rx="3" ry="3" style="stroke:#038048;stroke-width:1.0;"/><text fill="#000000" font-family="sans-serif" font-size="11" lengthAdjust="spacingAndGlyphs" textLength="233" x="499" y="471.5151">get&lt;Configuration&gt;(String name) : Value</text><!--MD5=[60d6b92408f98aed8df94d5c6e04aa63]
class State--><rect codeLine="67" fill="#FEFECE" filter="url(#flsrnzfkx5z5)" height="48" id="State" style="stroke:#A80036;stroke-width:1.5;" width="66" x="1164.5" y="61"/><ellipse cx="1179.5" cy="77" fill="#A9DCDF" rx="11" ry="11" style="stroke:#A80036;stroke-width:1.0;"/><path d="M1179.6094,72.3438 L1178.4531,77.4219 L1180.7813,77.4219 L1179.6094,72.3438 Z M1178.125,70.1094 L1181.1094,70.1094 L1184.4688,82.5 L1182.0156,82.5 L1181.25,79.4375 L1177.9688,79.4375 L1177.2188,82.5 L1174.7813,82.5 L1178.125,70.1094 Z " fill="#000000"/><text fill="#000000" font-family="sans-serif" font-size="12" font-style="italic" lengthAdjust="spacingAndGlyphs" textLength="34" x="1193.5" y="81.1543">State</text><line style="stroke:#A80036;stroke-width:1.5;" x1="1165.5" x2="1229.5" y1="93" y2="93"/><line style="stroke:#A80036;stroke-width:1.5;" x1="1165.5" x2="1229.5" y1="101" y2="101"/><!--MD5=[ebab1489da25b3a17d3d2750402b689e]
class FireState--><rect codeLine="70" fill="#FEFECE" filter="url(#flsrnzfkx5z5)" height="86.4141" id="FireState" style="stroke:#A80036;stroke-width:1.5;" width="128" x="1133.5" y="233"/><ellipse cx="1166.05" cy="249" fill="#ADD1B2" rx="11" ry="11" style="stroke:#A80036;stroke-width:1.0;"/><path d="M1169.0188,254.6406 Q1168.4406,254.9375 1167.8,255.0781 Q1167.1594,255.2344 1166.4563,255.2344 Q1163.9563,255.2344 1162.6281,253.5938 Q1161.3156,251.9375 1161.3156,248.8125 Q1161.3156,245.6875 1162.6281,244.0313 Q1163.9563,242.375 1166.4563,242.375 Q1167.1594,242.375 1167.8,242.5313 Q1168.4563,242.6875 1169.0188,242.9844 L1169.0188,245.7031 Q1168.3938,245.125 1167.8,244.8594 Q1167.2063,244.5781 1166.5813,244.5781 Q1165.2375,244.5781 1164.55,245.6563 Q1163.8625,246.7188 1163.8625,248.8125 Q1163.8625,250.9063 1164.55,251.9844 Q1165.2375,253.0469 1166.5813,253.0469 Q1167.2063,253.0469 1167.8,252.7813 Q1168.3938,252.5 1169.0188,251.9219 L1169.0188,254.6406 Z " fill="#000000"/><text fill="#000000" font-family="sans-serif" font-size="12" lengthAdjust="spacingAndGlyphs" textLength="57" x="1183.95" y="253.1543">FireState</text><line style="stroke:#A80036;stroke-width:1.5;" x1="1134.5" x2="1260.5" y1="265" y2="265"/><rect fill="none" height="6" style="stroke:#C82930;stroke-width:1.0;" width="6" x="1141.5" y="273"/><text fill="#000000" font-family="sans-serif" font-size="11" lengthAdjust="spacingAndGlyphs" textLength="102" x="1153.5" y="279.2104">FIRE_STATE state;</text><rect fill="none" height="6" style="stroke:#C82930;stroke-width:1.0;" width="6" x="1141.5" y="285.8047"/><text fill="#000000" font-family="sans-serif" font-size="11" lengthAdjust="spacingAndGlyphs" textLength="100" x="1153.5" y="292.0151">double flamability</text><text fill="#000000" font-family="sans-serif" font-size="11" lengthAdjust="spacingAndGlyphs" textLength="4" x="1153.5" y="304.8198">-</text><line style="stroke:#A80036;stroke-width:1.5;" x1="1134.5" x2="1260.5" y1="311.4141" y2="311.4141"/><!--MD5=[3740550df71ddcc2b7f8273dd805b61a]
class FIRE_STATE--><rect codeLine="80" fill="#FEFECE" filter="url(#flsrnzfkx5z5)" height="60.8047" id="FIRE_STATE" style="stroke:#A80036;stroke-width:1.5;" width="152" x="1296.5" y="245.5"/><ellipse cx="1334" cy="261.5" fill="#EB937F" rx="11" ry="11" style="stroke:#A80036;stroke-width:1.0;"/><path d="M1338.1094,267.5 L1330.3906,267.5 L1330.3906,255.1094 L1338.1094,255.1094 L1338.1094,257.2656 L1332.8438,257.2656 L1332.8438,259.9375 L1337.6094,259.9375 L1337.6094,262.0938 L1332.8438,262.0938 L1332.8438,265.3438 L1338.1094,265.3438 L1338.1094,267.5 Z " fill="#000000"/><text fill="#000000" font-family="sans-serif" font-size="12" lengthAdjust="spacingAndGlyphs" textLength="70" x="1353" y="265.6543">FIRE_STATE</text><line style="stroke:#A80036;stroke-width:1.5;" x1="1297.5" x2="1447.5" y1="277.5" y2="277.5"/><text fill="#000000" font-family="sans-serif" font-size="11" lengthAdjust="spacingAndGlyphs" textLength="140" x="1302.5" y="291.7104">ONFIRE, BURNT, NORMAL</text><line style="stroke:#A80036;stroke-width:1.5;" x1="1297.5" x2="1447.5" y1="298.3047" y2="298.3047"/><path d="M1315,65 L1315,105.2656 A0,0 0 0 0 1315,105.2656 L1368.5,105.2656 L1372.5,245.29 L1376.5,105.2656 L1430,105.2656 A0,0 0 0 0 1430,105.2656 L1430,75 L1420,65 L1315,65 A0,0 0 0 0 1315,65 " fill="#FBFB77" filter="url(#flsrnzfkx5z5)" style="stroke:#A80036;stroke-width:1.0;"/><path d="M1420,65 L1420,75 L1430,75 L1420,65 " fill="#FBFB77" style="stroke:#A80036;stroke-width:1.0;"/><text fill="#000000" font-family="sans-serif" font-size="13" lengthAdjust="spacingAndGlyphs" textLength="61" x="1321" y="82.0669">Nested in</text><text fill="#000000" font-family="sans-serif" font-size="13" lengthAdjust="spacingAndGlyphs" textLength="94" x="1321" y="97.1997">FireState class</text><!--MD5=[db2232425420b6d2573340bf89fe6abf]
class CONWAY_STATE--><rect codeLine="88" fill="#FEFECE" filter="url(#flsrnzfkx5z5)" height="60.8047" id="CONWAY_STATE" style="stroke:#A80036;stroke-width:1.5;" width="128" x="1483.5" y="245.5"/><ellipse cx="1498.5" cy="261.5" fill="#EB937F" rx="11" ry="11" style="stroke:#A80036;stroke-width:1.0;"/><path d="M1502.6094,267.5 L1494.8906,267.5 L1494.8906,255.1094 L1502.6094,255.1094 L1502.6094,257.2656 L1497.3438,257.2656 L1497.3438,259.9375 L1502.1094,259.9375 L1502.1094,262.0938 L1497.3438,262.0938 L1497.3438,265.3438 L1502.6094,265.3438 L1502.6094,267.5 Z " fill="#000000"/><text fill="#000000" font-family="sans-serif" font-size="12" lengthAdjust="spacingAndGlyphs" textLength="96" x="1512.5" y="265.6543">CONWAY_STATE</text><line style="stroke:#A80036;stroke-width:1.5;" x1="1484.5" x2="1610.5" y1="277.5" y2="277.5"/><text fill="#000000" font-family="sans-serif" font-size="11" lengthAdjust="spacingAndGlyphs" textLength="68" x="1489.5" y="291.7104">DEAD, ALIVE</text><line style="stroke:#A80036;stroke-width:1.5;" x1="1484.5" x2="1610.5" y1="298.3047" y2="298.3047"/><path d="M1477,65 L1477,105.2656 A0,0 0 0 0 1477,105.2656 L1543.5,105.2656 L1547.5,245.29 L1551.5,105.2656 L1618,105.2656 A0,0 0 0 0 1618,105.2656 L1618,75 L1608,65 L1477,65 A0,0 0 0 0 1477,65 " fill="#FBFB77" filter="url(#flsrnzfkx5z5)" style="stroke:#A80036;stroke-width:1.0;"/><path d="M1608,65 L1608,75 L1618,75 L1608,65 " fill="#FBFB77" style="stroke:#A80036;stroke-width:1.0;"/><text fill="#000000" font-family="sans-serif" font-size="13" lengthAdjust="spacingAndGlyphs" textLength="61" x="1483" y="82.0669">Nested in</text><text fill="#000000" font-family="sans-serif" font-size="13" lengthAdjust="spacingAndGlyphs" textLength="120" x="1483" y="97.1997">ConwayState class</text><!--MD5=[f550ebcc8342cab85ed8a27eaf97f3b3]
class StateRule--><rect codeLine="97" fill="#FEFECE" filter="url(#flsrnzfkx5z5)" height="48" id="StateRule" style="stroke:#A80036;stroke-width:1.5;" width="196" x="1818.5" y="252"/><ellipse cx="1833.5" cy="268" fill="#A9DCDF" rx="11" ry="11" style="stroke:#A80036;stroke-width:1.0;"/><path d="M1833.6094,263.3438 L1832.4531,268.4219 L1834.7813,268.4219 L1833.6094,263.3438 Z M1832.125,261.1094 L1835.1094,261.1094 L1838.4688,273.5 L1836.0156,273.5 L1835.25,270.4375 L1831.9688,270.4375 L1831.2188,273.5 L1828.7813,273.5 L1832.125,261.1094 Z " fill="#000000"/><text fill="#000000" font-family="sans-serif" font-size="12" font-style="italic" lengthAdjust="spacingAndGlyphs" textLength="61" x="1847.5" y="272.1543">StateRule</text><rect fill="#FFFFFF" height="15.9688" style="stroke:#000000;stroke-width:1.0;stroke-dasharray:2.0,2.0;" width="101" x="1916.5" y="249"/><text fill="#000000" font-family="sans-serif" font-size="12" font-style="italic" lengthAdjust="spacingAndGlyphs" textLength="99" x="1917.5" y="261.1387">T extends State</text><line style="stroke:#A80036;stroke-width:1.5;" x1="1819.5" x2="2013.5" y1="284" y2="284"/><line style="stroke:#A80036;stroke-width:1.5;" x1="1819.5" x2="2013.5" y1="292" y2="292"/><path d="M1818.5,57.5 L1818.5,112.8984 A0,0 0 0 0 1818.5,112.8984 L1912.5,112.8984 L1916.5,251.73 L1920.5,112.8984 L2014.5,112.8984 A0,0 0 0 0 2014.5,112.8984 L2014.5,67.5 L2004.5,57.5 L1818.5,57.5 A0,0 0 0 0 1818.5,57.5 " fill="#FBFB77" filter="url(#flsrnzfkx5z5)" style="stroke:#A80036;stroke-width:1.0;"/><path d="M2004.5,57.5 L2004.5,67.5 L2014.5,67.5 L2004.5,57.5 " fill="#FBFB77" style="stroke:#A80036;stroke-width:1.0;"/><text fill="#000000" font-family="sans-serif" font-size="13" lengthAdjust="spacingAndGlyphs" textLength="169" x="1824.5" y="74.5669">A Possible way of updating</text><text fill="#000000" font-family="sans-serif" font-size="13" lengthAdjust="spacingAndGlyphs" textLength="175" x="1824.5" y="89.6997">the state of cells during the</text><text fill="#000000" font-family="sans-serif" font-size="13" lengthAdjust="spacingAndGlyphs" textLength="73" x="1824.5" y="104.8325">simulation?</text><!--MD5=[97d912d5523e732eb6b7b29006e034fc]
class FireRule--><rect codeLine="100" fill="#FEFECE" filter="url(#flsrnzfkx5z5)" height="99.2188" id="FireRule" style="stroke:#A80036;stroke-width:1.5;" width="143" x="1643" y="392"/><ellipse cx="1658" cy="408" fill="#ADD1B2" rx="11" ry="11" style="stroke:#A80036;stroke-width:1.0;"/><path d="M1660.9688,413.6406 Q1660.3906,413.9375 1659.75,414.0781 Q1659.1094,414.2344 1658.4063,414.2344 Q1655.9063,414.2344 1654.5781,412.5938 Q1653.2656,410.9375 1653.2656,407.8125 Q1653.2656,404.6875 1654.5781,403.0313 Q1655.9063,401.375 1658.4063,401.375 Q1659.1094,401.375 1659.75,401.5313 Q1660.4063,401.6875 1660.9688,401.9844 L1660.9688,404.7031 Q1660.3438,404.125 1659.75,403.8594 Q1659.1563,403.5781 1658.5313,403.5781 Q1657.1875,403.5781 1656.5,404.6563 Q1655.8125,405.7188 1655.8125,407.8125 Q1655.8125,409.9063 1656.5,410.9844 Q1657.1875,412.0469 1658.5313,412.0469 Q1659.1563,412.0469 1659.75,411.7813 Q1660.3438,411.5 1660.9688,410.9219 L1660.9688,413.6406 Z " fill="#000000"/><text fill="#000000" font-family="sans-serif" font-size="12" lengthAdjust="spacingAndGlyphs" textLength="50" x="1672" y="412.1543">FireRule</text><rect fill="#FFFFFF" height="15.9688" style="stroke:#000000;stroke-width:1.0;stroke-dasharray:2.0,2.0;" width="59" x="1730" y="389"/><text fill="#000000" font-family="sans-serif" font-size="12" font-style="italic" lengthAdjust="spacingAndGlyphs" textLength="57" x="1731" y="401.1387">FireState</text><line style="stroke:#A80036;stroke-width:1.5;" x1="1644" x2="1785" y1="424" y2="424"/><rect fill="none" height="6" style="stroke:#C82930;stroke-width:1.0;" width="6" x="1651" y="432"/><text fill="#000000" font-family="sans-serif" font-size="11" lengthAdjust="spacingAndGlyphs" textLength="100" x="1663" y="438.2104">double flamability</text><rect fill="none" height="6" style="stroke:#C82930;stroke-width:1.0;" width="6" x="1651" y="444.8047"/><text fill="#000000" font-family="sans-serif" font-size="11" lengthAdjust="spacingAndGlyphs" textLength="68" x="1663" y="451.0151">double stuff</text><line style="stroke:#A80036;stroke-width:1.5;" x1="1644" x2="1785" y1="457.6094" y2="457.6094"/><ellipse cx="1654" cy="468.6094" fill="#84BE84" rx="3" ry="3" style="stroke:#038048;stroke-width:1.0;"/><text fill="#000000" font-family="sans-serif" font-size="11" lengthAdjust="spacingAndGlyphs" textLength="49" x="1663" y="471.8198">getters()</text><ellipse cx="1654" cy="481.4141" fill="#84BE84" rx="3" ry="3" style="stroke:#038048;stroke-width:1.0;"/><text fill="#000000" font-family="sans-serif" font-size="11" lengthAdjust="spacingAndGlyphs" textLength="49" x="1663" y="484.6245">setters()</text><!--MD5=[52b82aa5d5ad3262ae4832b2c3d55967]
class Spreadable--><rect codeLine="111" fill="#FEFECE" filter="url(#flsrnzfkx5z5)" height="73.6094" id="Spreadable" style="stroke:#A80036;stroke-width:1.5;" width="135" x="1647" y="239"/><ellipse cx="1675.95" cy="255" fill="#B4A7E5" rx="11" ry="11" style="stroke:#A80036;stroke-width:1.0;"/><path d="M1671.8719,250.7656 L1671.8719,248.6094 L1679.2625,248.6094 L1679.2625,250.7656 L1676.7938,250.7656 L1676.7938,258.8438 L1679.2625,258.8438 L1679.2625,261 L1671.8719,261 L1671.8719,258.8438 L1674.3406,258.8438 L1674.3406,250.7656 L1671.8719,250.7656 Z " fill="#000000"/><text fill="#000000" font-family="sans-serif" font-size="12" font-style="italic" lengthAdjust="spacingAndGlyphs" textLength="72" x="1693.05" y="259.1543">Spreadable</text><line style="stroke:#A80036;stroke-width:1.5;" x1="1648" x2="1781" y1="271" y2="271"/><line style="stroke:#A80036;stroke-width:1.5;" x1="1648" x2="1781" y1="279" y2="279"/><ellipse cx="1658" cy="290" fill="#84BE84" rx="3" ry="3" style="stroke:#038048;stroke-width:1.0;"/><text fill="#000000" font-family="sans-serif" font-size="11" lengthAdjust="spacingAndGlyphs" textLength="109" x="1667" y="293.2104">getSpreadChance()</text><ellipse cx="1658" cy="302.8047" fill="#84BE84" rx="3" ry="3" style="stroke:#038048;stroke-width:1.0;"/><text fill="#000000" font-family="sans-serif" font-size="11" lengthAdjust="spacingAndGlyphs" textLength="109" x="1667" y="306.0151">setSpreadChance()</text><!--MD5=[e6ba4962bbf4b372ed54d9422511928f]
class ConwayRule--><rect codeLine="107" fill="#FEFECE" filter="url(#flsrnzfkx5z5)" height="60.8047" id="ConwayRule" style="stroke:#A80036;stroke-width:1.5;" width="193" x="1821" y="411"/><ellipse cx="1836" cy="427" fill="#ADD1B2" rx="11" ry="11" style="stroke:#A80036;stroke-width:1.0;"/><path d="M1838.9688,432.6406 Q1838.3906,432.9375 1837.75,433.0781 Q1837.1094,433.2344 1836.4063,433.2344 Q1833.9063,433.2344 1832.5781,431.5938 Q1831.2656,429.9375 1831.2656,426.8125 Q1831.2656,423.6875 1832.5781,422.0313 Q1833.9063,420.375 1836.4063,420.375 Q1837.1094,420.375 1837.75,420.5313 Q1838.4063,420.6875 1838.9688,420.9844 L1838.9688,423.7031 Q1838.3438,423.125 1837.75,422.8594 Q1837.1563,422.5781 1836.5313,422.5781 Q1835.1875,422.5781 1834.5,423.6563 Q1833.8125,424.7188 1833.8125,426.8125 Q1833.8125,428.9063 1834.5,429.9844 Q1835.1875,431.0469 1836.5313,431.0469 Q1837.1563,431.0469 1837.75,430.7813 Q1838.3438,430.5 1838.9688,429.9219 L1838.9688,432.6406 Z " fill="#000000"/><text fill="#000000" font-family="sans-serif" font-size="12" lengthAdjust="spacingAndGlyphs" textLength="74" x="1850" y="431.1543">ConwayRule</text><rect fill="#FFFFFF" height="15.9688" style="stroke:#000000;stroke-width:1.0;stroke-dasharray:2.0,2.0;" width="85" x="1932" y="408"/><text fill="#000000" font-family="sans-serif" font-size="12" font-style="italic" lengthAdjust="spacingAndGlyphs" textLength="83" x="1933" y="420.1387">ConwayState</text><line style="stroke:#A80036;stroke-width:1.5;" x1="1822" x2="2013" y1="443" y2="443"/><rect fill="none" height="6" style="stroke:#C82930;stroke-width:1.0;" width="6" x="1829" y="451"/><text fill="#000000" font-family="sans-serif" font-size="11" lengthAdjust="spacingAndGlyphs" textLength="92" x="1841" y="457.2104">numPeopleDead</text><line style="stroke:#A80036;stroke-width:1.5;" x1="1822" x2="2013" y1="463.8047" y2="463.8047"/><!--MD5=[244ec9cc94bd246031d1828d1beb3151]
reverse link CellManager to RectangularManager--><path d="M296.5,345.95 C296.5,371.45 296.5,398.65 296.5,417.3 " fill="none" id="CellManager-backto-RectangularManager" style="stroke:#A80036;stroke-width:1.0;"/><polygon fill="none" points="289.5,345.61,296.5,325.61,303.5,345.61,289.5,345.61" style="stroke:#A80036;stroke-width:1.0;"/><!--MD5=[e0bc5ce58a70bd93f1a754c94cc1d757]
reverse link SimulationSystem to FireSystem--><path d="M608.5,352.36 C608.5,370.41 608.5,388.88 608.5,404.21 " fill="none" id="SimulationSystem-backto-FireSystem" style="stroke:#A80036;stroke-width:1.0;"/><polygon fill="none" points="601.5,352.35,608.5,332.35,615.5,352.35,601.5,352.35" style="stroke:#A80036;stroke-width:1.0;"/><!--MD5=[2f209e79a6f56fd6abc4bdcf3713a51f]
reverse link State to FireState--><path d="M1197.5,129.2 C1197.5,160.31 1197.5,202.08 1197.5,232.94 " fill="none" id="State-backto-FireState" style="stroke:#A80036;stroke-width:1.0;"/><polygon fill="none" points="1190.5,129.18,1197.5,109.18,1204.5,129.18,1190.5,129.18" style="stroke:#A80036;stroke-width:1.0;"/><!--MD5=[c7f3715df13489ef8c129011f807c027]
reverse link StateRule to FireRule--><path d="M1872.26,312.81 C1843.57,336.03 1805.83,366.58 1774.46,391.97 " fill="none" id="StateRule-backto-FireRule" style="stroke:#A80036;stroke-width:1.0;"/><polygon fill="none" points="1868.04,307.22,1887.99,300.08,1876.84,318.1,1868.04,307.22" style="stroke:#A80036;stroke-width:1.0;"/><!--MD5=[36f4c6dd431eb767e118c6478c721df5]
reverse link Spreadable to FireRule--><path d="M1714.5,333.31 C1714.5,352.38 1714.5,373.49 1714.5,391.91 " fill="none" id="Spreadable-backto-FireRule" style="stroke:#A80036;stroke-width:1.0;stroke-dasharray:7.0,7.0;"/><polygon fill="none" points="1707.5,333.29,1714.5,313.29,1721.5,333.29,1707.5,333.29" style="stroke:#A80036;stroke-width:1.0;"/><!--MD5=[2ab1400119613dcac85cdc891b6c89f0]
reverse link StateRule to ConwayRule--><path d="M1916.77,320.46 C1916.94,349.03 1917.16,385.65 1917.32,410.9 " fill="none" id="StateRule-backto-ConwayRule" style="stroke:#A80036;stroke-width:1.0;"/><polygon fill="none" points="1909.76,320.12,1916.64,300.08,1923.76,320.04,1909.76,320.12" style="stroke:#A80036;stroke-width:1.0;"/><!--MD5=[66345e65ace3548fa458df148b64fba8]
@startuml
class Cell<T extends State> {
	- T myState;
	- T nextState;
	- StateRule<T>

	+addNeighbor(Cell n);
	+getState(): T;
	+determineNextState();
	+advanceState();
	+get<AspectOfState>();
}

note top of CellManager
	arranges cells and assigns
	neighbors based on shape 
	and cell amounts. Does
	EVERYTHING with cells
end note
abstract class CellManager<T extends State> {
	-ArrayList<Cell<T>> cells;
	-StateRules<T> rules;
	+addCell(Cell<T> cell);
	+updateCells();
}

note top of SimulationSystem
	getConfigurations()
	returns a map of
	the value and how
	to represent it 
	(i.e. a slider or whatever)
end note

class SimulationSystem {
	-CellManager manager
	-StateRules<T> rules;
	+setConfiguration(String name, double value) : double
	+getConfigurations() : List<MapEntries<String, String>>
	+reset()
}
note bottom of RectangularManager
	When cells are added their neighbors
	are configured in a rectangular pattern.
end note
class RectangularManager<T extends State> extends CellManager {

}

note top of SimulationManager
	Set the simulation and the system
	the goes with it.
end note

class SimulationManager {
	+resetSimulation()
	+getConfigurations();
	+setConfiguration(String config, double value);
	+setSystem(SYSTEM system);
	+availableSystems();
}

class FireSystem extends SimulationSystem {
	-int flamibility
	+get<Configuration>(String name) : Value
}

abstract class State {
}

class FireState extends State {
	-FIRE_STATE state;
	-double flamability
	-
}

note top of FIRE_STATE
	Nested in
	FireState class
end note
enum FIRE_STATE {
	ONFIRE, BURNT, NORMAL
}

note top of CONWAY_STATE
	Nested in
	ConwayState class
end note
enum CONWAY_STATE {
	DEAD, ALIVE
}

note top of StateRule
	A Possible way of updating
	the state of cells during the
	simulation?
end note
abstract class StateRule<T extends State> {
}

class FireRule<FireState> extends StateRule implements Spreadable {
	-double flamability
	-double stuff
	+getters()
	+setters()
}

class ConwayRule<ConwayState> extends StateRule {
	-numPeopleDead
}

interface Spreadable {
	+getSpreadChance()
	+setSpreadChance()
}

@enduml

PlantUML version 1.2020.22(Sun Dec 06 04:36:27 EST 2020)
(GPL source distribution)
Java Runtime: OpenJDK Runtime Environment
JVM: OpenJDK 64-Bit Server VM
Default Encoding: UTF-8
Language: en
Country: US
--></g></svg>